<svg xmlns="http://www.w3.org/2000/svg" xmlns:xlink="http://www.w3.org/1999/xlink" width="500" zoomAndPan="magnify" viewBox="0 0 375 374.999991" height="500" preserveAspectRatio="xMidYMid meet" version="1.0"><defs><g/></defs><g fill="#000000" fill-opacity="1"><g transform="translate(129.265025, 140.674265)"><g><path d="M 2.90625 -3.085938 C 4.296875 -4.636719 4.109375 -6.492188 2.972656 -7.507812 C 2.460938 -7.96875 1.839844 -8.152344 1.195312 -8.144531 C 0.351562 -8.136719 -0.574219 -7.71875 -1.523438 -7.074219 C -2.863281 -6.175781 -3.679688 -6.035156 -4.382812 -6.664062 C -5.191406 -7.390625 -5.003906 -8.609375 -4.261719 -9.4375 C -3.34375 -10.464844 -2.316406 -10.417969 -1.445312 -10.101562 L -1.210938 -11.136719 C -2.4375 -11.613281 -3.855469 -11.421875 -5.003906 -10.140625 C -6.152344 -8.855469 -6.390625 -7.003906 -5.066406 -5.820312 C -3.992188 -4.855469 -2.664062 -4.96875 -0.855469 -6.210938 C 0.445312 -7.109375 1.480469 -7.351562 2.292969 -6.628906 C 3.101562 -5.902344 2.960938 -4.675781 2.148438 -3.769531 C 1.203125 -2.710938 0.113281 -2.691406 -1.109375 -3.128906 L -1.371094 -2.101562 C 0.199219 -1.492188 1.695312 -1.734375 2.90625 -3.085938 Z M 2.90625 -3.085938 "/></g></g></g><g fill="#000000" fill-opacity="1"><g transform="translate(140.302939, 129.366377)"><g><path d="M 6.207031 -10.625 C 4.53125 -13.054688 1.386719 -13.6875 -1.054688 -12.003906 C -3.53125 -10.296875 -4.03125 -7.101562 -2.335938 -4.648438 C -0.660156 -2.214844 2.480469 -1.582031 4.925781 -3.269531 C 7.398438 -4.976562 7.898438 -8.171875 6.207031 -10.625 Z M 5.316406 -9.929688 C 6.632812 -8.019531 6.339844 -5.484375 4.378906 -4.128906 C 2.390625 -2.761719 -0.117188 -3.414062 -1.449219 -5.34375 C -2.765625 -7.25 -2.472656 -9.789062 -0.507812 -11.140625 C 1.476562 -12.511719 3.992188 -11.847656 5.316406 -9.929688 Z M 5.316406 -9.929688 "/></g></g></g><g fill="#000000" fill-opacity="1"><g transform="translate(156.785121, 119.317627)"><g><path d="M 5.265625 -6.976562 L 4.90625 -7.917969 L 0.34375 -6.164062 L -0.992188 -9.636719 L 3.988281 -11.554688 L 3.625 -12.507812 L -2.375 -10.199219 L 1.347656 -0.519531 L 2.363281 -0.90625 L 0.703125 -5.222656 Z M 5.265625 -6.976562 "/></g></g></g><g fill="#000000" fill-opacity="1"><g transform="translate(171.952915, 114.352547)"><g><path d="M 2.300781 -9.808594 L 3.707031 -0.5625 L 4.792969 -0.726562 L 3.390625 -9.976562 L 6.808594 -10.496094 L 6.652344 -11.503906 L -1.285156 -10.296875 L -1.128906 -9.289062 Z M 2.300781 -9.808594 "/></g></g></g><g fill="#000000" fill-opacity="1"><g transform="translate(187.843776, 112.477505)"><g><path d="M 2.625 -10.148438 L 1.492188 -10.273438 L 3.59375 0.390625 L 4.78125 0.519531 L 8.511719 -8.027344 L 10.300781 1.121094 L 11.511719 1.253906 L 15.875 -8.707031 L 14.78125 -8.824219 L 11.109375 -0.320312 L 11.082031 -0.324219 L 9.300781 -9.421875 L 8.078125 -9.554688 L 4.398438 -1.105469 L 4.371094 -1.109375 Z M 2.625 -10.148438 "/></g></g></g><g fill="#000000" fill-opacity="1"><g transform="translate(210.029695, 116.224735)"><g><path d="M 1.070312 0.425781 L 3.109375 -1.613281 L 8.367188 0.476562 L 8.433594 3.355469 L 9.503906 3.78125 L 9.175781 -7.515625 L 8.03125 -7.96875 L 0.0351562 0.015625 Z M 8.339844 -0.605469 L 3.859375 -2.386719 L 8.167969 -6.703125 Z M 8.339844 -0.605469 "/></g></g></g><g fill="#000000" fill-opacity="1"><g transform="translate(226.151527, 123.622824)"><g><path d="M 4.484375 -1.980469 L 6.21875 -0.761719 L 6.308594 4.433594 L 7.390625 5.195312 L 7.289062 -0.234375 C 8.671875 0.492188 10.308594 0.425781 11.328125 -1.027344 C 12.257812 -2.347656 12.152344 -4.136719 10.082031 -5.59375 L 7.144531 -7.65625 L 1.179688 0.832031 L 2.070312 1.453125 Z M 5.054688 -2.792969 L 7.449219 -6.199219 L 9.441406 -4.796875 C 11.058594 -3.660156 10.992188 -2.460938 10.40625 -1.625 C 9.804688 -0.769531 8.570312 -0.324219 7.027344 -1.40625 Z M 5.054688 -2.792969 "/></g></g></g><g fill="#000000" fill-opacity="1"><g transform="translate(239.570501, 134.138373)"><g><path d="M 12.269531 -0.375 L 13.019531 -1.050781 L 8.671875 -5.871094 L 0.96875 1.074219 L 5.347656 5.933594 L 6.097656 5.261719 L 2.441406 1.207031 L 5.238281 -1.3125 L 8.546875 2.355469 L 9.292969 1.683594 L 5.984375 -1.988281 L 8.652344 -4.390625 Z M 12.269531 -0.375 "/></g></g></g><g fill="#000000" fill-opacity="1"><g transform="translate(124.330145, 242.457393)"><g><path d="M 12.242188 -0.925781 L 12.957031 -1.632812 L 8.402344 -6.253906 L 1.015625 1.027344 L 5.609375 5.6875 L 6.324219 4.980469 L 2.492188 1.09375 L 5.171875 -1.546875 L 8.640625 1.972656 L 9.359375 1.265625 L 5.890625 -2.253906 L 8.445312 -4.773438 Z M 12.242188 -0.925781 "/></g></g></g><g fill="#000000" fill-opacity="1"><g transform="translate(137.82959, 254.767641)"><g><path d="M 8.402344 5.226562 L 13.882812 -3.582031 L 12.972656 -4.148438 L 8.394531 3.207031 L 7.773438 -7.382812 L 6.703125 -8.046875 L 1.226562 0.761719 L 2.136719 1.328125 L 6.804688 -6.175781 L 7.414062 4.609375 Z M 8.402344 5.226562 "/></g></g></g><g fill="#000000" fill-opacity="1"><g transform="translate(156.161969, 264.74931)"><g><path d="M 12.273438 -3.84375 C 12.242188 -5.476562 11.25 -7.453125 8.800781 -8.222656 C 5.953125 -9.113281 3.121094 -7.558594 2.226562 -4.703125 C 1.335938 -1.871094 2.597656 0.925781 5.59375 1.867188 C 8.476562 2.769531 10.851562 1.304688 11.636719 -1.195312 L 11.753906 -1.574219 L 6.507812 -3.222656 L 6.207031 -2.261719 L 10.339844 -0.964844 C 9.636719 0.882812 7.679688 1.449219 5.925781 0.898438 C 3.507812 0.144531 2.613281 -2.179688 3.320312 -4.429688 C 4.070312 -6.820312 6.339844 -7.910156 8.464844 -7.246094 C 10.539062 -6.59375 11.15625 -5.027344 11.203125 -3.707031 Z M 12.273438 -3.84375 "/></g></g></g><g fill="#000000" fill-opacity="1"><g transform="translate(176.233482, 269.644402)"><g><path d="M 2.519531 0.25 L 3.539062 -10.074219 L 2.457031 -10.179688 L 1.4375 0.140625 Z M 2.519531 0.25 "/></g></g></g><g fill="#000000" fill-opacity="1"><g transform="translate(189.541439, 270.372926)"><g><path d="M 9.839844 -1.058594 L 8.730469 -11.371094 L 7.664062 -11.257812 L 8.589844 -2.640625 L 1.578125 -10.601562 L 0.328125 -10.46875 L 1.4375 -0.152344 L 2.503906 -0.269531 L 1.558594 -9.054688 L 8.679688 -0.933594 Z M 9.839844 -1.058594 "/></g></g></g><g fill="#000000" fill-opacity="1"><g transform="translate(210.039439, 266.896869)"><g><path d="M 4.320312 -11.492188 L 3.984375 -12.4375 L -2.128906 -10.253906 L 1.359375 -0.484375 L 7.523438 -2.6875 L 7.183594 -3.636719 L 2.042969 -1.800781 L 0.777344 -5.34375 L 5.433594 -7.003906 L 5.09375 -7.953125 L 0.441406 -6.289062 L -0.769531 -9.671875 Z M 4.320312 -11.492188 "/></g></g></g><g fill="#000000" fill-opacity="1"><g transform="translate(226.791633, 259.814596)"><g><path d="M 1.710938 -12.15625 L 1.171875 -13.007812 L -4.316406 -9.542969 L 1.222656 -0.769531 L 6.753906 -4.265625 L 6.21875 -5.117188 L 1.601562 -2.203125 L -0.40625 -5.382812 L 3.773438 -8.023438 L 3.234375 -8.871094 L -0.945312 -6.234375 L -2.859375 -9.269531 Z M 1.710938 -12.15625 "/></g></g></g><g fill="#000000" fill-opacity="1"><g transform="translate(241.625712, 249.251651)"><g><path d="M -1.191406 -4.757812 L 0.304688 -6.257812 L 5.441406 -5.464844 L 6.375 -6.402344 L 1.003906 -7.226562 C 1.957031 -8.464844 2.167969 -10.085938 0.910156 -11.335938 C -0.234375 -12.476562 -2.015625 -12.679688 -3.800781 -10.886719 L -6.332031 -8.339844 L 1.019531 -1.023438 L 1.785156 -1.792969 Z M -1.894531 -5.457031 L -4.84375 -8.390625 L -3.125 -10.121094 C -1.730469 -11.519531 -0.558594 -11.25 0.164062 -10.53125 C 0.90625 -9.792969 1.132812 -8.5 -0.195312 -7.167969 Z M -1.894531 -5.457031 "/></g></g></g><g fill="#000000" fill-opacity="1"><g transform="translate(201.588965, 206.464903)"><g><path d="M 37.3125 -39.734375 L 19.78125 1.875 L 2.25 -39.734375 L 8.578125 -39.734375 L 20 -11.09375 L 31.046875 -39.734375 Z M 37.3125 -39.734375 "/></g></g></g><g fill="#000000" fill-opacity="1"><g transform="translate(133.240748, 206.464903)"><g><path d="M 5.71875 -39.734375 L 16.59375 -39.734375 C 21.539062 -39.734375 25.632812 -38.75 28.875 -36.78125 C 32.113281 -34.820312 34.472656 -32.296875 35.953125 -29.203125 C 37.441406 -26.109375 38.1875 -22.84375 38.1875 -19.40625 C 38.1875 -15.550781 37.289062 -12.148438 35.5 -9.203125 C 33.707031 -6.253906 31.304688 -3.984375 28.296875 -2.390625 C 25.296875 -0.796875 22.035156 0 18.515625 0 L 5.71875 0 Z M 17.46875 -5.171875 C 20.40625 -5.171875 23.023438 -5.742188 25.328125 -6.890625 C 27.640625 -8.046875 29.445312 -9.722656 30.75 -11.921875 C 32.050781 -14.117188 32.703125 -16.738281 32.703125 -19.78125 C 32.703125 -22.894531 32.019531 -25.566406 30.65625 -27.796875 C 29.300781 -30.035156 27.5 -31.734375 25.25 -32.890625 C 23 -34.046875 20.570312 -34.625 17.96875 -34.625 L 11.046875 -34.625 L 11.046875 -5.171875 Z M 17.46875 -5.171875 "/></g></g></g><path stroke-linecap="butt" transform="matrix(0, -0.75, 0.75, 0, 186.746858, 231.803538)" fill="none" stroke-linejoin="miter" d="M -0.00153216 0.998981 L 118.149517 0.998981 " stroke="#000000" stroke-width="2" stroke-opacity="1" stroke-miterlimit="4"/></svg>