<svg xmlns="http://www.w3.org/2000/svg" xmlns:xlink="http://www.w3.org/1999/xlink" width="500" zoomAndPan="magnify" viewBox="0 0 375 374.999991" height="500" preserveAspectRatio="xMidYMid meet" version="1.0"><defs><g/></defs><path stroke-linecap="butt" transform="matrix(0.796661, 0, 0, 0.796661, 96.637455, -0.962274)" fill="none" stroke-linejoin="miter" d="M 218.616685 209.763964 C 218.616685 222.13984 216.542598 233.69687 212.399327 244.425245 C 208.256056 255.158523 202.666317 264.989598 195.630112 273.923373 C 188.593906 282.857147 180.380913 290.795557 171.00094 297.733697 C 161.616063 304.671837 151.657503 310.536159 141.125259 315.326663 C 130.593016 320.117167 119.815608 323.760303 108.783229 326.256072 C 97.750851 328.751841 87.046993 330.002177 76.66675 330.002177 C 75.666481 330.100243 73.847365 330.149276 71.199594 330.149276 C 68.556726 330.149276 65.48237 330.173792 61.991236 330.222825 C 58.495197 330.276761 54.704963 330.301278 50.610724 330.301278 C 46.516486 330.301278 42.525217 330.301278 38.632013 330.301278 C 34.738809 330.301278 31.095673 330.276761 27.702604 330.222825 C 24.309534 330.173792 21.509762 330.100243 19.317996 330.002177 C 21.014531 330.002177 22.510031 329.551076 23.8094 328.653776 C 25.103866 327.751572 26.226717 326.555172 27.177953 325.059672 C 28.124286 323.559269 28.92352 321.838218 29.570753 319.891616 C 30.222889 317.945014 30.796573 315.973896 31.296707 313.978261 C 32.292073 309.187757 32.890273 303.79415 33.091308 297.807246 C 33.091308 290.418004 33.189373 279.439562 33.390408 264.867016 C 33.493376 258.674174 33.591442 251.363385 33.689508 242.929744 C 33.792477 234.491201 33.939575 224.812128 34.140609 213.877815 C 34.341644 202.948405 34.562291 190.646078 34.812359 176.970832 C 35.062426 163.295586 35.337009 148.070904 35.63611 131.301689 C 31.242771 131.79692 26.878853 132.174473 22.534547 132.42454 C 18.195145 132.674607 13.625289 132.699124 8.834785 132.498089 L 36.837413 114.081372 C 41.426882 114.679572 46.168353 115.076738 51.061826 115.277772 C 55.950395 115.478807 60.794835 115.576872 65.585339 115.576872 C 74.367112 115.576872 82.48204 115.22874 89.915411 114.527571 C 97.353686 113.831305 104.713508 113.483172 112.004684 113.483172 C 118.589788 113.483172 125.802512 114.00292 133.637952 115.052221 C 141.478296 116.101523 149.338252 117.999092 157.222725 120.744929 C 165.107198 123.490765 172.746507 127.158418 180.130846 131.747887 C 187.520088 136.34226 194.056159 142.206582 199.748866 149.340853 C 205.43667 156.480028 210.006526 165.016637 213.448628 174.945778 C 216.89073 184.879821 218.616685 196.485883 218.616685 209.763964 Z M 58.24513 288.672437 C 57.94603 291.766406 57.298797 294.762309 56.298528 297.655244 C 55.504197 300.151013 54.32741 302.798784 52.782877 305.593653 C 51.233441 308.388523 49.164257 310.786226 46.570422 312.781861 C 60.441799 313.478126 71.871343 313.929228 80.859054 314.130263 C 89.841862 314.326394 97.030069 314.429363 102.418773 314.429363 C 116.196988 314.429363 128.572865 311.95811 139.55621 307.015604 C 150.534652 302.073099 159.84598 295.385026 167.480385 286.951386 C 175.114791 278.517745 180.954597 268.706284 184.999802 257.526807 C 189.040104 246.34733 191.065159 234.515717 191.065159 222.041775 C 191.065159 209.763964 189.442173 198.854167 186.196202 189.322192 C 182.955135 179.790217 178.635346 171.454643 173.246642 164.315468 C 167.853035 157.181197 161.714129 151.164873 154.825022 146.271401 C 147.940818 141.382831 140.875192 137.416078 133.637952 134.371142 C 126.400712 131.326205 119.241924 129.129536 112.151782 127.781134 C 105.066544 126.432733 98.677571 125.760983 92.984864 125.760983 C 87.096025 125.760983 81.604353 125.957115 76.514749 126.359183 C 71.425145 126.756349 66.482639 127.256484 61.692135 127.854684 C 61.393035 146.026237 61.118452 162.221768 60.868385 176.446181 C 60.618317 190.670594 60.392766 203.247505 60.191732 214.176915 C 59.995601 225.111228 59.794566 234.545137 59.593532 242.478643 C 59.397401 250.417052 59.245399 257.129641 59.147334 262.616411 C 58.745265 275.497325 58.446165 284.181033 58.24513 288.672437 Z M 58.24513 288.672437 " stroke="#ffffff" stroke-width="23.000025" stroke-opacity="1" stroke-miterlimit="4"/><g fill="#000000" fill-opacity="1"><g transform="translate(96.637455, 261.935765)"><g><path d="M 174.15625 -95.78125 C 174.15625 -85.925781 172.503906 -76.722656 169.203125 -68.171875 C 165.898438 -59.617188 161.445312 -51.785156 155.84375 -44.671875 C 150.238281 -37.554688 143.695312 -31.234375 136.21875 -25.703125 C 128.75 -20.179688 120.816406 -15.507812 112.421875 -11.6875 C 104.035156 -7.875 95.445312 -4.972656 86.65625 -2.984375 C 77.875 -0.992188 69.347656 0 61.078125 0 C 60.273438 0.0820312 58.820312 0.125 56.71875 0.125 C 54.613281 0.125 52.164062 0.140625 49.375 0.171875 C 46.59375 0.210938 43.570312 0.234375 40.3125 0.234375 C 37.050781 0.234375 33.867188 0.234375 30.765625 0.234375 C 27.671875 0.234375 24.769531 0.210938 22.0625 0.171875 C 19.363281 0.140625 17.140625 0.0820312 15.390625 0 C 16.742188 0 17.9375 -0.351562 18.96875 -1.0625 C 20 -1.78125 20.890625 -2.734375 21.640625 -3.921875 C 22.398438 -5.117188 23.035156 -6.492188 23.546875 -8.046875 C 24.066406 -9.597656 24.53125 -11.171875 24.9375 -12.765625 C 25.726562 -16.578125 26.203125 -20.867188 26.359375 -25.640625 C 26.359375 -31.523438 26.4375 -40.273438 26.59375 -51.890625 C 26.675781 -56.816406 26.753906 -62.640625 26.828125 -69.359375 C 26.910156 -76.078125 27.03125 -83.789062 27.1875 -92.5 C 27.351562 -101.207031 27.535156 -111.007812 27.734375 -121.90625 C 27.929688 -132.800781 28.148438 -144.929688 28.390625 -158.296875 C 24.890625 -157.898438 21.410156 -157.597656 17.953125 -157.390625 C 14.492188 -157.191406 10.851562 -157.175781 7.03125 -157.34375 L 29.34375 -172.015625 C 33 -171.535156 36.773438 -171.210938 40.671875 -171.046875 C 44.566406 -170.890625 48.425781 -170.8125 52.25 -170.8125 C 59.25 -170.8125 65.707031 -171.085938 71.625 -171.640625 C 77.550781 -172.203125 83.414062 -172.484375 89.21875 -172.484375 C 94.46875 -172.484375 100.210938 -172.066406 106.453125 -171.234375 C 112.703125 -170.398438 118.96875 -168.890625 125.25 -166.703125 C 131.53125 -164.515625 137.613281 -161.59375 143.5 -157.9375 C 149.382812 -154.28125 154.59375 -149.609375 159.125 -143.921875 C 163.65625 -138.234375 167.289062 -131.429688 170.03125 -123.515625 C 172.78125 -115.609375 174.15625 -106.363281 174.15625 -95.78125 Z M 46.40625 -32.921875 C 46.164062 -30.453125 45.644531 -28.066406 44.84375 -25.765625 C 44.207031 -23.773438 43.273438 -21.664062 42.046875 -19.4375 C 40.816406 -17.21875 39.164062 -15.3125 37.09375 -13.71875 C 48.144531 -13.164062 57.25 -12.804688 64.40625 -12.640625 C 71.570312 -12.484375 77.300781 -12.40625 81.59375 -12.40625 C 92.5625 -12.40625 102.421875 -14.375 111.171875 -18.3125 C 119.921875 -22.25 127.335938 -27.578125 133.421875 -34.296875 C 139.503906 -41.015625 144.15625 -48.828125 147.375 -57.734375 C 150.59375 -66.640625 152.203125 -76.0625 152.203125 -86 C 152.203125 -95.78125 150.910156 -104.46875 148.328125 -112.0625 C 145.742188 -119.65625 142.304688 -126.296875 138.015625 -131.984375 C 133.722656 -137.671875 128.832031 -142.460938 123.34375 -146.359375 C 117.851562 -150.253906 112.222656 -153.414062 106.453125 -155.84375 C 100.691406 -158.269531 94.988281 -160.019531 89.34375 -161.09375 C 83.695312 -162.164062 78.609375 -162.703125 74.078125 -162.703125 C 69.378906 -162.703125 65.003906 -162.539062 60.953125 -162.21875 C 56.898438 -161.90625 52.960938 -161.507812 49.140625 -161.03125 C 48.898438 -146.5625 48.679688 -133.660156 48.484375 -122.328125 C 48.285156 -110.992188 48.109375 -100.972656 47.953125 -92.265625 C 47.796875 -83.554688 47.632812 -76.039062 47.46875 -69.71875 C 47.3125 -63.394531 47.195312 -58.046875 47.125 -53.671875 C 46.800781 -43.421875 46.5625 -36.503906 46.40625 -32.921875 Z M 46.40625 -32.921875 "/></g></g></g><path stroke-linecap="butt" transform="matrix(0.638842, 0, 0, 0.638842, 150.087489, 97.059054)" fill="none" stroke-linejoin="miter" d="M 72.021147 113.779286 C 68.627558 116.078366 64.909896 118.548654 60.868162 121.190151 C 56.826429 123.837761 52.809153 126.1613 48.816336 128.154651 C 55.199952 145.226544 61.216693 161.295646 66.854331 176.368073 C 72.498083 191.446614 77.836107 205.94427 82.880631 219.867157 C 87.919041 233.796158 92.584461 247.321597 96.876893 260.449589 C 101.169324 273.571466 105.162141 286.626083 108.855345 299.601211 C 113.349557 291.915191 118.039436 283.678858 122.931096 274.898329 C 127.822755 266.111685 132.567665 257.080459 137.159711 247.79242 C 141.751756 238.510495 146.117563 229.051248 150.263244 219.420793 C 154.402811 209.784223 158.02264 200.27606 161.116614 190.896302 C 164.210589 181.51043 166.656419 172.350797 168.454104 163.417403 C 170.251789 154.48401 171.150632 146.021438 171.150632 138.035804 C 171.150632 136.941295 171.101715 135.86513 170.997767 134.819538 C 170.899934 133.767831 170.74707 132.795613 170.551403 131.896771 C 169.151166 131.701104 167.702011 131.597157 166.210055 131.597157 C 164.711984 131.597157 163.164997 131.597157 161.562978 131.597157 C 158.768618 131.597157 155.998715 131.676646 153.253271 131.823396 C 150.507827 131.97626 147.988623 132.196385 145.695657 132.495999 C 150.287703 128.307515 154.402811 125.109593 158.047098 122.914461 C 161.691384 120.719328 164.809818 119.068393 167.402397 117.973884 C 170.398539 116.775428 173.04615 116.078366 175.339115 115.876585 C 177.240748 115.876585 179.631547 115.852127 182.529855 115.80321 C 185.422049 115.754294 188.491565 115.674804 191.738405 115.576971 C 194.979129 115.479138 198.274885 115.350732 201.619557 115.203982 C 204.96423 115.051118 208.033746 114.904368 210.828107 114.751503 C 213.622467 114.604754 216.043839 114.451889 218.092221 114.305139 C 220.134489 114.152275 221.461352 113.981067 222.06058 113.779286 C 219.963281 115.277357 217.68866 116.848803 215.248944 118.499738 C 212.803114 120.144558 210.302253 121.740462 207.75859 123.28745 C 205.214927 124.834437 202.640691 126.283591 200.048112 127.628798 C 197.449417 128.980119 194.954671 130.099086 192.563872 130.997928 C 191.463249 140.683415 189.2192 151.017046 185.825611 161.998822 C 182.425907 172.974484 178.488121 184.005176 173.993909 195.084786 C 169.499696 206.17051 164.711984 216.926047 159.618544 227.357511 C 154.525103 237.788975 149.688474 247.248222 145.096429 255.729138 C 140.504383 264.216167 136.432076 271.400792 132.891738 277.295242 C 129.345284 283.183578 126.874996 287.078562 125.480873 288.97408 C 123.781021 291.468827 122.032253 294.110323 120.240683 296.910798 C 118.742612 299.301597 117.116135 302.047041 115.373481 305.141016 C 113.624713 308.241105 112.053267 311.432913 110.65303 314.728669 L 90.73786 334.643838 C 88.744508 328.449774 87.069115 323.209584 85.723909 318.917152 C 84.378702 314.624721 83.155787 310.858143 82.055164 307.617418 C 80.95454 304.370579 79.957865 301.374438 79.059022 298.628994 C 78.16018 295.88355 77.163504 292.966897 76.068995 289.872923 C 74.968372 286.778948 73.720998 283.305869 72.320761 279.465916 C 70.926638 275.619849 69.202328 270.905512 67.153945 265.316791 C 65.111677 259.721955 62.641389 253.1121 59.743081 245.474996 C 56.850887 237.837892 53.408381 228.653801 49.415564 217.922722 C 45.422747 207.191644 40.77567 194.760713 35.486563 180.636046 C 30.197456 166.511378 24.107339 150.16712 17.222328 131.597157 L 11.382909 131.597157 C 8.582434 131.597157 5.788074 131.676646 2.993713 131.823396 C 0.199352 131.97626 -2.344311 132.196385 -4.643391 132.495999 C 0.0526025 128.307515 4.216628 125.109593 7.860914 122.914461 C 11.505201 120.719328 14.623634 119.068393 17.222328 117.973884 C 20.212355 116.775428 22.859966 116.078366 25.152932 115.876585 C 27.054564 115.876585 29.445363 115.852127 32.343671 115.80321 C 35.235865 115.754294 38.305382 115.674804 41.552221 115.576971 C 44.79906 115.479138 48.088701 115.350732 51.433374 115.203982 C 54.778046 115.051118 57.872021 114.904368 60.715298 114.751503 C 63.56469 114.604754 65.986061 114.451889 67.979413 114.305139 C 69.978879 114.152275 71.324085 113.981067 72.021147 113.779286 Z M 72.021147 113.779286 " stroke="#ffffff" stroke-width="23.000025" stroke-opacity="1" stroke-miterlimit="4"/><g fill="#000000" fill-opacity="1"><g transform="translate(150.087489, 307.877069)"><g><path d="M 46.015625 -138.125 C 43.847656 -136.65625 41.472656 -135.078125 38.890625 -133.390625 C 36.304688 -131.703125 33.738281 -130.222656 31.1875 -128.953125 C 35.269531 -118.046875 39.109375 -107.773438 42.703125 -98.140625 C 46.304688 -88.515625 49.71875 -79.253906 52.9375 -70.359375 C 56.164062 -61.460938 59.148438 -52.820312 61.890625 -44.4375 C 64.628906 -36.050781 67.179688 -27.710938 69.546875 -19.421875 C 72.410156 -24.328125 75.40625 -29.585938 78.53125 -35.203125 C 81.65625 -40.816406 84.679688 -46.585938 87.609375 -52.515625 C 90.546875 -58.441406 93.335938 -64.484375 95.984375 -70.640625 C 98.640625 -76.796875 100.953125 -82.867188 102.921875 -88.859375 C 104.898438 -94.859375 106.460938 -100.710938 107.609375 -106.421875 C 108.765625 -112.128906 109.34375 -117.53125 109.34375 -122.625 C 109.34375 -123.332031 109.304688 -124.019531 109.234375 -124.6875 C 109.171875 -125.351562 109.078125 -125.972656 108.953125 -126.546875 C 108.054688 -126.679688 107.128906 -126.75 106.171875 -126.75 C 105.222656 -126.75 104.238281 -126.75 103.21875 -126.75 C 101.425781 -126.75 99.65625 -126.695312 97.90625 -126.59375 C 96.15625 -126.5 94.546875 -126.359375 93.078125 -126.171875 C 96.003906 -128.847656 98.628906 -130.890625 100.953125 -132.296875 C 103.285156 -133.703125 105.28125 -134.753906 106.9375 -135.453125 C 108.851562 -136.210938 110.546875 -136.660156 112.015625 -136.796875 C 113.222656 -136.796875 114.75 -136.8125 116.59375 -136.84375 C 118.445312 -136.875 120.410156 -136.921875 122.484375 -136.984375 C 124.554688 -137.046875 126.660156 -137.125 128.796875 -137.21875 C 130.929688 -137.3125 132.890625 -137.40625 134.671875 -137.5 C 136.460938 -137.601562 138.007812 -137.703125 139.3125 -137.796875 C 140.625 -137.890625 141.472656 -138 141.859375 -138.125 C 140.515625 -137.164062 139.0625 -136.160156 137.5 -135.109375 C 135.9375 -134.054688 134.34375 -133.035156 132.71875 -132.046875 C 131.09375 -131.066406 129.453125 -130.144531 127.796875 -129.28125 C 126.140625 -128.414062 124.546875 -127.695312 123.015625 -127.125 C 122.316406 -120.9375 120.878906 -114.335938 118.703125 -107.328125 C 116.535156 -100.316406 114.015625 -93.269531 111.140625 -86.1875 C 108.273438 -79.101562 105.21875 -72.226562 101.96875 -65.5625 C 98.71875 -58.90625 95.625 -52.863281 92.6875 -47.4375 C 89.757812 -42.019531 87.160156 -37.429688 84.890625 -33.671875 C 82.628906 -29.910156 81.050781 -27.421875 80.15625 -26.203125 C 79.070312 -24.609375 77.957031 -22.921875 76.8125 -21.140625 C 75.851562 -19.609375 74.816406 -17.851562 73.703125 -15.875 C 72.585938 -13.894531 71.582031 -11.851562 70.6875 -9.75 L 57.96875 2.96875 C 56.695312 -0.988281 55.628906 -4.335938 54.765625 -7.078125 C 53.898438 -9.816406 53.117188 -12.222656 52.421875 -14.296875 C 51.722656 -16.367188 51.082031 -18.28125 50.5 -20.03125 C 49.925781 -21.789062 49.289062 -23.65625 48.59375 -25.625 C 47.894531 -27.601562 47.097656 -29.820312 46.203125 -32.28125 C 45.304688 -34.738281 44.203125 -37.753906 42.890625 -41.328125 C 41.585938 -44.898438 40.007812 -49.125 38.15625 -54 C 36.3125 -58.875 34.113281 -64.738281 31.5625 -71.59375 C 29.007812 -78.445312 26.039062 -86.382812 22.65625 -95.40625 C 19.28125 -104.4375 15.394531 -114.882812 11 -126.75 L 7.265625 -126.75 C 5.484375 -126.75 3.695312 -126.695312 1.90625 -126.59375 C 0.125 -126.5 -1.5 -126.359375 -2.96875 -126.171875 C 0.03125 -128.847656 2.691406 -130.890625 5.015625 -132.296875 C 7.347656 -133.703125 9.34375 -134.753906 11 -135.453125 C 12.914062 -136.210938 14.609375 -136.660156 16.078125 -136.796875 C 17.285156 -136.796875 18.8125 -136.8125 20.65625 -136.84375 C 22.507812 -136.875 24.472656 -136.921875 26.546875 -136.984375 C 28.617188 -137.046875 30.722656 -137.125 32.859375 -137.21875 C 34.992188 -137.3125 36.96875 -137.40625 38.78125 -137.5 C 40.601562 -137.601562 42.148438 -137.703125 43.421875 -137.796875 C 44.703125 -137.890625 45.566406 -138 46.015625 -138.125 Z M 46.015625 -138.125 "/></g></g></g></svg>